<mxfile host="app.diagrams.net" modified="2024-02-01T07:10:51.145Z" agent="Mozilla/5.0 (Windows NT 10.0; Win64; x64) AppleWebKit/537.36 (KHTML, like Gecko) Chrome/121.0.0.0 Safari/537.36" version="22.1.18" etag="ck-1_701Iv1yEg6rYRRL" type="github">
  <diagram name="第 1 页" id="UikkpJyIvU_2YqGUM_Yr">
    <mxGraphModel>
      <root>
        <mxCell id="0" />
        <mxCell id="1" parent="0" />
      </root>
    </mxGraphModel>
  </diagram>
</mxfile>
